<svg width="800" height="500" viewBox="0 0 800 500" fill="none" xmlns="http://www.w3.org/2000/svg">
  <rect width="800" height="500" rx="16" fill="#0B132B" />
  
  <!-- Subtle Grid Pattern -->
  <defs>
    <pattern id="grid-erp" width="24" height="24" patternUnits="userSpaceOnUse">
      <path d="M 24 0 L 0 0 0 24" fill="none" stroke="#1C2541" stroke-width="0.8" opacity="0.4" />
    </pattern>
    <linearGradient id="primary-grad" x1="0" y1="0" x2="1" y2="1">
      <stop offset="0%" stop-color="#3B82F6" />
      <stop offset="100%" stop-color="#1D4ED8" />
    </linearGradient>
    <linearGradient id="card-grad" x1="0" y1="0" x2="0" y2="1">
      <stop offset="0%" stop-color="#1E293B" stop-opacity="0.9" />
      <stop offset="100%" stop-color="#0F172A" stop-opacity="0.9" />
    </linearGradient>
  </defs>
  
  <rect width="800" height="500" rx="16" fill="url(#grid-erp)" />

  <!-- App Header / Window Bar -->
  <rect x="24" y="24" width="752" height="452" rx="12" fill="#0F172A" stroke="#1E293B" stroke-width="1.5" />
  
  <!-- Window Controls -->
  <circle cx="50" cy="46" r="5" fill="#EF4444" opacity="0.8"/>
  <circle cx="66" cy="46" r="5" fill="#F59E0B" opacity="0.8"/>
  <circle cx="82" cy="46" r="5" fill="#10B981" opacity="0.8"/>
  
  <rect x="120" y="38" width="220" height="16" rx="4" fill="#1E293B" />
  <text x="130" y="50" font-family="system-ui, sans-serif" font-size="10" fill="#94A3B8">schoolconnect.portal / admin-dashboard</text>
  
  <rect x="670" y="36" width="90" height="20" rx="10" fill="#1E293B" />
  <circle cx="682" cy="46" r="4" fill="#10B981" />
  <text x="694" y="50" font-family="system-ui, sans-serif" font-size="9" fill="#E2E8F0" font-weight="600">Multi-Tenant</text>

  <!-- Sidebar -->
  <rect x="25" y="68" width="180" height="407" fill="#0B1120" />
  <line x1="205" y1="68" x2="205" y2="475" stroke="#1E293B" stroke-width="1" />
  <line x1="25" y1="68" x2="775" y2="68" stroke="#1E293B" stroke-width="1" />

  <!-- Sidebar Items -->
  <rect x="40" y="88" width="150" height="28" rx="6" fill="#1E293B" />
  <text x="54" y="106" font-family="system-ui, sans-serif" font-size="11" fill="#60A5FA" font-weight="600">📊 Overview</text>
  
  <text x="54" y="138" font-family="system-ui, sans-serif" font-size="11" fill="#94A3B8">👨‍🎓 Student Mgmt</text>
  <text x="54" y="168" font-family="system-ui, sans-serif" font-size="11" fill="#94A3B8">👩‍🏫 Teacher Directory</text>
  <text x="54" y="198" font-family="system-ui, sans-serif" font-size="11" fill="#94A3B8">📅 Attendance &amp; Leave</text>
  <text x="54" y="228" font-family="system-ui, sans-serif" font-size="11" fill="#94A3B8">🕒 Timetable &amp; Schedule</text>
  <text x="54" y="258" font-family="system-ui, sans-serif" font-size="11" fill="#94A3B8">📚 Subject Management</text>
  <text x="54" y="288" font-family="system-ui, sans-serif" font-size="11" fill="#94A3B8">🔐 Role Permissions</text>
  <text x="54" y="318" font-family="system-ui, sans-serif" font-size="11" fill="#94A3B8">⚙️ System Settings</text>

  <!-- Main Content Header -->
  <text x="228" y="104" font-family="system-ui, sans-serif" font-size="16" fill="#F8FAFC" font-weight="700">Centralized Operations Hub</text>
  <text x="228" y="122" font-family="system-ui, sans-serif" font-size="11" fill="#64748B">Central Campus • Branch ID: #BR-8820 • Role: SuperAdmin</text>

  <!-- Metric Stat Cards -->
  <rect x="228" y="140" width="168" height="74" rx="8" fill="url(#card-grad)" stroke="#1E293B" />
  <text x="242" y="162" font-family="system-ui, sans-serif" font-size="11" fill="#94A3B8">Enrolled Students</text>
  <text x="242" y="192" font-family="system-ui, sans-serif" font-size="20" fill="#F8FAFC" font-weight="700">1,420</text>
  <rect x="340" y="152" width="44" height="18" rx="4" fill="#10B981" fill-opacity="0.15" />
  <text x="348" y="165" font-family="system-ui, sans-serif" font-size="9" fill="#34D399" font-weight="600">+98.2%</text>

  <rect x="410" y="140" width="168" height="74" rx="8" fill="url(#card-grad)" stroke="#1E293B" />
  <text x="424" y="162" font-family="system-ui, sans-serif" font-size="11" fill="#94A3B8">Faculty Attendance</text>
  <text x="424" y="192" font-family="system-ui, sans-serif" font-size="20" fill="#F8FAFC" font-weight="700">96.4%</text>
  <rect x="522" y="152" width="44" height="18" rx="4" fill="#3B82F6" fill-opacity="0.15" />
  <text x="532" y="165" font-family="system-ui, sans-serif" font-size="9" fill="#60A5FA" font-weight="600">Active</text>

  <rect x="592" y="140" width="168" height="74" rx="8" fill="url(#card-grad)" stroke="#1E293B" />
  <text x="606" y="162" font-family="system-ui, sans-serif" font-size="11" fill="#94A3B8">Active Timetables</text>
  <text x="606" y="192" font-family="system-ui, sans-serif" font-size="20" fill="#F8FAFC" font-weight="700">48 Classes</text>
  <rect x="704" y="152" width="44" height="18" rx="4" fill="#8B5CF6" fill-opacity="0.15" />
  <text x="714" y="165" font-family="system-ui, sans-serif" font-size="9" fill="#A78BFA" font-weight="600">Live</text>

  <!-- Data Table Container -->
  <rect x="228" y="230" width="532" height="225" rx="8" fill="url(#card-grad)" stroke="#1E293B" />
  <text x="246" y="258" font-family="system-ui, sans-serif" font-size="12" fill="#F8FAFC" font-weight="600">Recent Class Schedules &amp; Attendance Feed</text>
  
  <!-- Table Header -->
  <rect x="246" y="272" width="496" height="24" rx="4" fill="#131D33" />
  <text x="258" y="288" font-family="system-ui, sans-serif" font-size="10" fill="#64748B" font-weight="600">CLASS / SUBJECT</text>
  <text x="390" y="288" font-family="system-ui, sans-serif" font-size="10" fill="#64748B" font-weight="600">TEACHER</text>
  <text x="510" y="288" font-family="system-ui, sans-serif" font-size="10" fill="#64748B" font-weight="600">TIMING</text>
  <text x="650" y="288" font-family="system-ui, sans-serif" font-size="10" fill="#64748B" font-weight="600">STATUS</text>

  <!-- Row 1 -->
  <line x1="246" y1="326" x2="742" y2="326" stroke="#1E293B" stroke-width="1" />
  <text x="258" y="318" font-family="system-ui, sans-serif" font-size="11" fill="#F1F5F9" font-weight="500">Grade 10 - Mathematics</text>
  <text x="390" y="318" font-family="system-ui, sans-serif" font-size="11" fill="#94A3B8">Dr. A. Sharma</text>
  <text x="510" y="318" font-family="system-ui, sans-serif" font-size="11" fill="#94A3B8">09:00 - 09:45 AM</text>
  <rect x="650" y="306" width="60" height="18" rx="9" fill="#10B981" fill-opacity="0.15" />
  <text x="660" y="319" font-family="system-ui, sans-serif" font-size="9" fill="#34D399" font-weight="600">Completed</text>

  <!-- Row 2 -->
  <line x1="246" y1="362" x2="742" y2="362" stroke="#1E293B" stroke-width="1" />
  <text x="258" y="354" font-family="system-ui, sans-serif" font-size="11" fill="#F1F5F9" font-weight="500">Grade 12 - Computer Science</text>
  <text x="390" y="354" font-family="system-ui, sans-serif" font-size="11" fill="#94A3B8">Prof. R. Verma</text>
  <text x="510" y="354" font-family="system-ui, sans-serif" font-size="11" fill="#94A3B8">10:00 - 10:45 AM</text>
  <rect x="650" y="342" width="60" height="18" rx="9" fill="#3B82F6" fill-opacity="0.15" />
  <text x="664" y="355" font-family="system-ui, sans-serif" font-size="9" fill="#60A5FA" font-weight="600">In Session</text>

  <!-- Row 3 -->
  <line x1="246" y1="398" x2="742" y2="398" stroke="#1E293B" stroke-width="1" />
  <text x="258" y="390" font-family="system-ui, sans-serif" font-size="11" fill="#F1F5F9" font-weight="500">Grade 9 - Physics Lab</text>
  <text x="390" y="390" font-family="system-ui, sans-serif" font-size="11" fill="#94A3B8">Ms. P. Deshmukh</text>
  <text x="510" y="390" font-family="system-ui, sans-serif" font-size="11" fill="#94A3B8">11:00 - 11:45 AM</text>
  <rect x="650" y="378" width="60" height="18" rx="9" fill="#F59E0B" fill-opacity="0.15" />
  <text x="665" y="391" font-family="system-ui, sans-serif" font-size="9" fill="#FBBF24" font-weight="600">Upcoming</text>

  <!-- Row 4 -->
  <text x="258" y="426" font-family="system-ui, sans-serif" font-size="11" fill="#F1F5F9" font-weight="500">Grade 11 - English Literature</text>
  <text x="390" y="426" font-family="system-ui, sans-serif" font-size="11" fill="#94A3B8">Mr. K. Nair</text>
  <text x="510" y="426" font-family="system-ui, sans-serif" font-size="11" fill="#94A3B8">12:00 - 12:45 PM</text>
  <rect x="650" y="414" width="60" height="18" rx="9" fill="#64748B" fill-opacity="0.15" />
  <text x="665" y="427" font-family="system-ui, sans-serif" font-size="9" fill="#94A3B8" font-weight="600">Scheduled</text>
</svg>
